<svg width="168" height="162" viewBox="0 0 168 162" fill="none" xmlns="http://www.w3.org/2000/svg">
<path d="M9.61173 16.7952C9.61173 16.7952 52.3021 30.6027 82.5914 29.1413C108.187 27.9063 150.279 14.5791 150.279 14.5791C150.279 14.5791 135.231 51.8661 135.69 78.1684C136.145 104.267 152.344 145.655 152.344 145.655" stroke="#F18F01" stroke-width="6.15524" stroke-linecap="round"/>
<circle cx="150.279" cy="14.579" r="13.5888" transform="rotate(89.0974 150.279 14.579)" fill="#24613B"/>
<circle cx="153.942" cy="145.63" r="13.5888" transform="rotate(89.0974 153.942 145.63)" fill="#24613B"/>
<circle cx="14.4072" cy="16.7192" r="13.5888" transform="rotate(89.0974 14.4072 16.7192)" fill="#24613B"/>
<path d="M110.534 96.6632C110.574 99.2773 109.575 101.801 107.755 103.678C107.755 103.678 96.6157 114.674 88.1739 123.482C80.0921 131.913 65.5321 147.253 65.5321 147.253C65.5321 147.253 56.8041 125.101 47.0451 115.629C37.1916 106.064 15.4689 98.7426 15.4689 98.7426C15.4689 98.7426 30.4388 83.0841 38.8924 74.2518C47.007 65.7737 57.6922 55.1676 57.6922 55.1676C59.5113 53.2897 62.0018 52.2113 64.6159 52.1696C64.6159 52.1696 75.0349 52.011 82.0455 51.895C89.0222 51.7795 97.35 51.6539 99.9643 51.6127C102.579 51.5715 105.102 52.5706 106.98 54.39C108.858 56.2095 109.936 58.7004 109.977 61.3148C110.018 63.9291 110.225 73.7956 110.281 80.6281C110.34 87.7844 110.534 96.6632 110.534 96.6632Z" stroke="#F18F01" stroke-width="6.15524" stroke-linecap="round" stroke-linejoin="round"/>
<path d="M80.4228 80.5714L91.4773 79.2285L91.1616 83.5896L80.7036 82.869L85.2316 93.068L81.1948 94.0878L78.6921 83.8214L70.5319 91.458L68.2728 87.775L77.2327 82.1091L67.4323 76.5616L70.2097 73.2243L78.2493 80.1098L80.3818 69.0975L84.3906 70.7343L80.4228 80.5714Z" fill="#085420"/>
</svg>
