<svg width="916" height="217" viewBox="0 0 916 217" fill="none" xmlns="http://www.w3.org/2000/svg">
<path d="M80.5032 41.3389C90.6001 33.0186 120.113 41.3389 120.113 41.3389H135.816V33.0186C135.816 33.0186 96.5731 35.4485 71.4001 35.3998C47.4783 35.3535 10.1907 33.0186 10.1907 33.0186V41.3389H24.8391C24.8391 41.3389 55.6501 32.8779 62.9251 41.3389C70.2001 49.7998 68.9977 79.7165 69 104.4C69.0024 129.118 69.6001 162 62.9251 167.55C56.25 173.1 40.2001 171.417 40.2001 171.417L42.0657 178.8H100.308L102.6 171.417C102.6 171.417 86.6063 174.769 80.5032 167.784C74.4001 160.8 73.1915 129.21 73.2001 104.4C73.2086 79.7157 70.4063 49.6592 80.5032 41.3389Z" fill="#F18F01"/>
<ellipse cx="132" cy="37.2" rx="13.2" ry="13.2" fill="#24613B"/>
<ellipse cx="13.2" cy="37.2" rx="13.2" ry="13.2" fill="#24613B"/>
<path d="M517.503 41.3389C527.6 33.0186 557.113 41.3389 557.113 41.3389H572.816V33.0186C572.816 33.0186 533.573 35.4485 508.4 35.3998C484.478 35.3535 447.191 33.0186 447.191 33.0186V41.3389H461.839C461.839 41.3389 492.65 32.8779 499.925 41.3389C507.2 49.7998 505.998 79.7165 506 104.4C506.002 129.118 506.6 162 499.925 167.55C493.25 173.1 477.2 171.417 477.2 171.417L479.066 178.8H537.308L539.6 171.417C539.6 171.417 523.606 174.769 517.503 167.784C511.4 160.8 510.191 129.21 510.2 104.4C510.209 79.7157 507.406 49.6592 517.503 41.3389Z" fill="#F18F01"/>
<ellipse cx="569" cy="37.2" rx="13.2" ry="13.2" fill="#24613B"/>
<ellipse cx="450.2" cy="37.2" rx="13.2" ry="13.2" fill="#24613B"/>
<path d="M167.762 173.043L166.98 179H116.688L117.469 173.922L132.605 170.602V105.074L116.98 101.266L117.859 96.1875L143.152 93.3555L144.715 95.0156L143.348 118.941H144.715C146.277 113.408 148.263 108.59 150.672 104.488C153.146 100.322 155.88 97.1315 158.875 94.918C161.935 92.7044 165.027 91.5977 168.152 91.5977C171.473 91.5977 174.109 92.5091 176.062 94.332C178.016 96.1549 178.992 98.3685 178.992 100.973C178.992 102.6 178.439 104.228 177.332 105.855C176.29 107.483 174.826 108.948 172.938 110.25C169.617 106.865 166.134 105.172 162.488 105.172C159.884 105.172 157.378 106.441 154.969 108.98C152.625 111.52 150.607 114.97 148.914 119.332C147.221 123.629 146.017 128.414 145.301 133.688V170.406L167.762 173.043ZM216.487 179C212.776 180.628 208.577 181.441 203.889 181.441C200.308 181.441 196.988 180.725 193.928 179.293C190.868 177.861 188.394 175.777 186.506 173.043C184.683 170.309 183.772 167.118 183.772 163.473C183.772 157.939 185.465 153.056 188.85 148.824C192.301 144.527 197.476 141.109 204.377 138.57C211.343 135.966 219.937 134.436 230.159 133.98V127.438C230.159 118.518 228.694 111.65 225.764 106.832C222.899 102.014 218.114 99.6055 211.409 99.6055C208.088 99.6055 205.549 100.387 203.791 101.949C202.099 103.512 200.894 105.79 200.178 108.785C199.462 111.78 198.941 115.947 198.616 121.285C195.556 121.285 192.952 120.667 190.803 119.43C188.655 118.128 187.58 115.816 187.58 112.496C187.58 109.176 189.143 105.986 192.268 102.926C195.393 99.8008 199.364 97.2943 204.182 95.4062C209 93.5182 213.752 92.5742 218.44 92.5742C226.838 92.5742 232.958 94.9831 236.799 99.8008C240.64 104.553 242.561 112.04 242.561 122.262V156.539C242.561 159.924 242.756 162.594 243.147 164.547C243.603 166.5 244.514 168.095 245.881 169.332C247.314 170.569 249.462 171.415 252.327 171.871L257.991 172.945L257.112 178.805L255.159 179.293C253.205 179.814 251.545 180.172 250.178 180.367C248.811 180.628 247.248 180.758 245.491 180.758C240.998 180.758 237.58 179.488 235.237 176.949C232.958 174.345 231.819 171.253 231.819 167.672V166.305H231.037C229.931 168.453 228.173 170.699 225.764 173.043C223.355 175.322 220.263 177.307 216.487 179ZM230.159 160.738V138.961C208.414 141.305 197.541 148.238 197.541 159.762C197.541 161.78 198.03 163.766 199.006 165.719C200.048 167.607 201.545 169.137 203.498 170.309C205.452 171.48 207.73 172.066 210.334 172.066C214.631 172.066 218.57 170.96 222.151 168.746C225.732 166.533 228.401 163.863 230.159 160.738ZM307.985 180.074C304.014 181.311 300.01 181.93 295.973 181.93C288.682 181.93 282.334 180.042 276.93 176.266C271.527 172.49 267.393 167.379 264.528 160.934C261.664 154.488 260.231 147.327 260.231 139.449C260.231 130.074 261.989 121.806 265.505 114.645C269.02 107.483 273.74 101.982 279.665 98.1406C285.654 94.2344 292.197 92.2812 299.294 92.2812C304.502 92.2812 308.766 93.0299 312.087 94.5273C315.472 96.0247 317.946 97.9779 319.509 100.387C321.071 102.796 321.852 105.367 321.852 108.102C321.852 113.505 318.76 116.728 312.575 117.77C310.557 112.105 308.148 107.711 305.348 104.586C302.549 101.461 298.968 99.8984 294.606 99.8984C290.7 99.8984 287.184 101.168 284.059 103.707C280.934 106.246 278.46 109.957 276.637 114.84C274.815 119.658 273.903 125.419 273.903 132.125C273.903 139.742 275.042 146.611 277.321 152.73C279.6 158.785 282.887 163.57 287.184 167.086C291.481 170.536 296.559 172.262 302.419 172.262C310.361 172.262 317.49 169.69 323.805 164.547L325.856 169.039C324.164 171.318 321.755 173.434 318.63 175.387C315.505 177.34 311.957 178.902 307.985 180.074ZM382.882 178.414C377.674 180.758 371.945 181.93 365.695 181.93C359.314 181.93 353.455 180.302 348.116 177.047C342.843 173.727 338.611 168.779 335.421 162.203C332.231 155.562 330.636 147.49 330.636 137.984C330.636 128.674 332.459 120.569 336.105 113.668C339.751 106.767 344.503 101.526 350.363 97.9453C356.287 94.2995 362.472 92.4766 368.917 92.4766C376.404 92.4766 382.329 94.9505 386.691 99.8984C391.118 104.846 393.331 112.268 393.331 122.164C393.331 123.727 393.168 125.842 392.843 128.512C392.517 131.116 392.127 133.264 391.671 134.957L344.405 135.543C344.536 141.988 345.61 147.913 347.628 153.316C349.711 158.72 352.836 163.082 357.003 166.402C361.17 169.723 366.313 171.383 372.433 171.383C376.534 171.383 380.245 170.862 383.566 169.82C386.886 168.779 390.369 167.021 394.015 164.547L395.87 168.844C392.42 172.88 388.09 176.07 382.882 178.414ZM375.363 105.27C372.628 101.754 368.885 99.9961 364.132 99.9961C360.616 99.9961 357.394 101.103 354.464 103.316C351.599 105.53 349.256 108.85 347.433 113.277C345.675 117.704 344.731 123.108 344.601 129.488L378.878 127.242C379.334 125.94 379.562 123.336 379.562 119.43C379.562 113.505 378.162 108.785 375.363 105.27ZM451.724 173.043L450.943 179H400.65L401.431 173.922L416.568 170.602V105.074L400.943 101.266L401.822 96.1875L427.115 93.3555L428.677 95.0156L427.31 118.941H428.677C430.24 113.408 432.226 108.59 434.634 104.488C437.108 100.322 439.843 97.1315 442.837 94.918C445.897 92.7044 448.99 91.5977 452.115 91.5977C455.435 91.5977 458.072 92.5091 460.025 94.332C461.978 96.1549 462.955 98.3685 462.955 100.973C462.955 102.6 462.401 104.228 461.295 105.855C460.253 107.483 458.788 108.948 456.9 110.25C453.58 106.865 450.097 105.172 446.451 105.172C443.847 105.172 441.34 106.441 438.931 108.98C436.587 111.52 434.569 114.97 432.877 119.332C431.184 123.629 429.979 128.414 429.263 133.688V170.406L451.724 173.043Z" fill="#24613B"/>
<path d="M582.207 179C578.496 180.628 574.297 181.441 569.609 181.441C566.029 181.441 562.708 180.725 559.648 179.293C556.589 177.861 554.115 175.777 552.227 173.043C550.404 170.309 549.492 167.118 549.492 163.473C549.492 157.939 551.185 153.056 554.57 148.824C558.021 144.527 563.197 141.109 570.098 138.57C577.064 135.966 585.658 134.436 595.879 133.98V127.438C595.879 118.518 594.414 111.65 591.484 106.832C588.62 102.014 583.835 99.6055 577.129 99.6055C573.809 99.6055 571.27 100.387 569.512 101.949C567.819 103.512 566.615 105.79 565.898 108.785C565.182 111.78 564.661 115.947 564.336 121.285C561.276 121.285 558.672 120.667 556.523 119.43C554.375 118.128 553.301 115.816 553.301 112.496C553.301 109.176 554.863 105.986 557.988 102.926C561.113 99.8008 565.085 97.2943 569.902 95.4062C574.72 93.5182 579.473 92.5742 584.16 92.5742C592.559 92.5742 598.678 94.9831 602.52 99.8008C606.361 104.553 608.281 112.04 608.281 122.262V156.539C608.281 159.924 608.477 162.594 608.867 164.547C609.323 166.5 610.234 168.095 611.602 169.332C613.034 170.569 615.182 171.415 618.047 171.871L623.711 172.945L622.832 178.805L620.879 179.293C618.926 179.814 617.266 180.172 615.898 180.367C614.531 180.628 612.969 180.758 611.211 180.758C606.719 180.758 603.301 179.488 600.957 176.949C598.678 174.345 597.539 171.253 597.539 167.672V166.305H596.758C595.651 168.453 593.893 170.699 591.484 173.043C589.076 175.322 585.983 177.307 582.207 179ZM595.879 160.738V138.961C574.134 141.305 563.262 148.238 563.262 159.762C563.262 161.78 563.75 163.766 564.727 165.719C565.768 167.607 567.266 169.137 569.219 170.309C571.172 171.48 573.451 172.066 576.055 172.066C580.352 172.066 584.29 170.96 587.871 168.746C591.452 166.533 594.121 163.863 595.879 160.738ZM679.565 212.203C672.924 215.263 665.86 216.793 658.373 216.793C651.863 216.793 646.069 215.979 640.991 214.352C635.912 212.724 631.909 210.283 628.979 207.027C626.049 203.772 624.584 199.801 624.584 195.113C624.584 190.751 626.179 187.138 629.37 184.273C632.56 181.409 636.498 178.74 641.186 176.266V175.582C638.386 174.28 636.108 172.555 634.35 170.406C632.657 168.258 631.811 165.849 631.811 163.18C631.811 160.901 633.308 158.264 636.303 155.27C639.363 152.21 642.814 149.638 646.655 147.555V147.066C644.767 146.35 642.651 144.853 640.307 142.574C638.028 140.296 636.043 137.431 634.35 133.98C632.722 130.465 631.909 126.656 631.909 122.555C631.909 117.281 633.341 112.333 636.205 107.711C639.07 103.089 642.879 99.4102 647.631 96.6758C652.449 93.9414 657.592 92.5742 663.061 92.5742C669.702 92.5742 675.919 94.625 681.713 98.7266C684.383 98.5964 688.093 98.3685 692.846 98.043C697.599 97.6523 701.017 97.3594 703.1 97.1641L704.662 98.9219L701.245 108.199L700.073 108.395L686.303 104.391L686.01 105.465C686.922 107.092 687.866 109.534 688.842 112.789C689.819 115.979 690.307 118.909 690.307 121.578C690.307 126.917 688.777 131.832 685.717 136.324C682.657 140.751 678.718 144.234 673.901 146.773C669.148 149.312 664.363 150.582 659.545 150.582C657.853 150.582 656.127 150.419 654.37 150.094C652.677 149.768 651.375 149.443 650.463 149.117C648.25 151.266 646.622 152.991 645.58 154.293C644.539 155.595 644.018 156.995 644.018 158.492C644.018 161.096 645.353 163.017 648.022 164.254C650.691 165.491 654.89 166.109 660.62 166.109H675.659C681.518 166.109 686.303 166.533 690.014 167.379C693.725 168.225 696.622 169.983 698.705 172.652C700.789 175.257 701.83 179.098 701.83 184.176C701.83 189.775 699.78 195.081 695.678 200.094C691.642 205.172 686.271 209.208 679.565 212.203ZM669.506 102.047C666.967 99.638 664.037 98.4336 660.717 98.4336C655.183 98.4336 651.049 100.419 648.315 104.391C645.646 108.362 644.311 113.733 644.311 120.504C644.311 124.605 645.125 128.479 646.752 132.125C648.38 135.706 650.561 138.57 653.295 140.719C656.03 142.867 658.992 143.941 662.182 143.941C666.739 143.941 670.45 142.249 673.315 138.863C676.179 135.413 677.612 130.4 677.612 123.824C677.612 119.527 676.896 115.426 675.463 111.52C674.096 107.613 672.11 104.456 669.506 102.047ZM667.748 177.34H647.045C647.045 177.145 646.199 177.568 644.506 178.609C642.814 179.651 641.284 181.116 639.916 183.004C638.549 184.957 637.866 187.398 637.866 190.328C637.866 202.242 646.85 208.199 664.819 208.199C669.181 208.199 673.217 207.516 676.928 206.148C680.704 204.781 683.699 202.698 685.912 199.898C688.191 197.099 689.33 193.616 689.33 189.449C689.33 186.389 688.745 184.013 687.573 182.32C686.466 180.628 684.35 179.391 681.225 178.609C678.165 177.763 673.673 177.34 667.748 177.34Z" fill="#24613B"/>
<path d="M748.612 49.7952C748.612 49.7952 791.302 63.6027 821.591 62.1413C847.187 60.9063 889.279 47.5791 889.279 47.5791C889.279 47.5791 874.231 84.8661 874.69 111.168C875.145 137.267 891.344 178.655 891.344 178.655" stroke="#F18F01" stroke-width="6.15524" stroke-linecap="round"/>
<circle cx="889.279" cy="47.579" r="13.5888" transform="rotate(89.0974 889.279 47.579)" fill="#24613B"/>
<circle cx="892.942" cy="178.63" r="13.5888" transform="rotate(89.0974 892.942 178.63)" fill="#24613B"/>
<circle cx="753.407" cy="49.7192" r="13.5888" transform="rotate(89.0974 753.407 49.7192)" fill="#24613B"/>
<path d="M849.534 129.663C849.574 132.277 848.575 134.801 846.755 136.678C846.755 136.678 835.616 147.674 827.174 156.482C819.092 164.913 804.532 180.253 804.532 180.253C804.532 180.253 795.804 158.101 786.045 148.629C776.192 139.064 754.469 131.743 754.469 131.743C754.469 131.743 769.439 116.084 777.892 107.252C786.007 98.7737 796.692 88.1676 796.692 88.1676C798.511 86.2897 801.002 85.2113 803.616 85.1696C803.616 85.1696 814.035 85.011 821.046 84.895C828.022 84.7795 836.35 84.6539 838.964 84.6127C841.579 84.5715 844.102 85.5706 845.98 87.39C847.858 89.2095 848.936 91.7004 848.977 94.3148C849.018 96.9291 849.225 106.796 849.281 113.628C849.34 120.784 849.534 129.663 849.534 129.663Z" stroke="#F18F01" stroke-width="6.15524" stroke-linecap="round" stroke-linejoin="round"/>
<path d="M819.423 113.571L830.477 112.229L830.162 116.59L819.704 115.869L824.232 126.068L820.195 127.088L817.692 116.821L809.532 124.458L807.273 120.775L816.233 115.109L806.432 109.562L809.21 106.224L817.249 113.11L819.382 102.098L823.391 103.734L819.423 113.571Z" fill="#085420"/>
<path d="M819.423 113.571L830.477 112.229L830.162 116.59L819.704 115.869L824.232 126.068L820.195 127.088L817.692 116.821L809.532 124.458L807.273 120.775L816.233 115.109L806.432 109.562L809.21 106.224L817.249 113.11L819.382 102.098L823.391 103.734L819.423 113.571Z" stroke="black"/>
</svg>
